<svg width="260" height="260" viewBox="0 0 260 260" fill="none" xmlns="http://www.w3.org/2000/svg">
<path d="M130 0C201.797 -1.56917e-06 260 58.2031 260 130C260 201.797 201.797 260 130 260C58.2032 260 1.56917e-06 201.797 0 130C0.00019663 58.2033 58.2033 0.000215753 130 0ZM119.671 45.6279C111.724 46.594 104.114 48.6537 97 51.6572V170L120.522 182V133.182C120.551 131.023 120.949 129.176 121.716 127.642C122.511 126.079 123.62 124.886 125.04 124.062C126.489 123.21 128.165 122.784 130.068 122.784C133.079 122.784 135.395 123.707 137.015 125.554C138.662 127.4 139.472 129.943 139.443 133.182V214.483C147.698 213.574 155.596 211.484 162.966 208.384V128.238C162.994 123.466 162.057 119.233 160.153 115.54C158.278 111.847 155.622 108.949 152.185 106.847C148.776 104.745 144.755 103.693 140.125 103.693C135.296 103.693 131.162 104.873 127.725 107.23C124.287 109.56 121.83 112.813 120.353 116.988H119.671V45.6279Z" fill="white"/>
</svg>
