<svg width="98" height="40" viewBox="0 0 98 40" fill="none" xmlns="http://www.w3.org/2000/svg">
<g clip-path="url(#clip0_3853_29394)">
<path fill-rule="evenodd" clip-rule="evenodd" d="M86.8578 23.6487C96.9539 23.6487 97.927 21.0392 97.927 11.8243C97.927 2.60951 96.9539 0 86.8578 0C76.7617 0 75.7886 2.60951 75.7886 11.8243C75.7886 21.0392 76.7617 23.6487 86.8578 23.6487Z" fill="#37890C"/>
<path fill-rule="evenodd" clip-rule="evenodd" d="M86.8578 21.3654C94.9569 21.3654 95.7375 19.2508 95.7375 11.7836C95.7375 4.31638 94.9569 2.20178 86.8578 2.20178C78.7588 2.20178 77.9781 4.31638 77.9781 11.7836C77.9781 19.2508 78.7588 21.3654 86.8578 21.3654Z" fill="#9FD200"/>
<path fill-rule="evenodd" clip-rule="evenodd" d="M91.834 6.73963C92.3883 7.29766 92.388 8.20261 91.8335 8.76094L89.9308 10.6767L91.2565 16.4586C91.4306 17.2178 90.9672 17.9771 90.2185 18.1657L90.1929 18.1719L90.1671 18.1776C89.412 18.3387 88.6653 17.8615 88.491 17.1015L87.5642 13.0596L85.0689 15.5723L85.3566 15.8621C85.6991 16.207 85.7043 16.7629 85.3719 17.1144L85.3564 17.1304C85.0085 17.4807 84.4444 17.4808 84.0967 17.1307L83.0039 16.0304C82.9336 15.9832 82.8665 15.9291 82.8036 15.8679L82.7858 15.8503C82.7179 15.7819 82.6583 15.7083 82.607 15.6307L81.4569 14.4727C81.1091 14.1225 81.1092 13.5547 81.4571 13.2043C81.805 12.854 82.3691 12.8539 82.7168 13.2041L83.0619 13.5515L85.5604 11.0357L81.5383 10.1008C80.7834 9.92529 80.3096 9.1734 80.4695 8.41305L80.4752 8.38712C80.6515 7.61817 81.4142 7.1389 82.1767 7.31616L87.9269 8.65281L89.8266 6.74014C90.3752 6.18777 91.2606 6.18155 91.8162 6.72201L91.834 6.73963Z" fill="white"/>
<path fill-rule="evenodd" clip-rule="evenodd" d="M47.5348 27.6838C52.6147 27.6838 56.7327 28.2703 56.7327 33.8419C56.7327 39.4135 52.6147 40 47.5348 40C42.4549 40 38.3369 39.3402 38.3369 33.8419C38.3369 28.3436 42.4549 27.6838 47.5348 27.6838ZM47.5348 31.1607C45.0378 31.1607 43.0136 31.4441 43.0136 33.8053C43.0136 36.1664 45.0378 36.4498 47.5348 36.4498C50.0318 36.4498 52.056 36.1979 52.056 33.8053C52.056 31.4126 50.0318 31.1607 47.5348 31.1607ZM65.2443 12.5129C69.2724 12.5129 72.5378 13.2509 72.5378 20.2615C72.5378 27.2721 69.2724 28.0101 65.2443 28.0101C61.2162 28.0101 57.9508 27.1799 57.9508 20.2615C57.9508 13.3431 61.2162 12.5129 65.2443 12.5129ZM30.9649 12.5129C36.8807 12.5129 38.9877 14.0626 38.9877 20.3431C38.9877 20.5669 38.9858 20.7844 38.9817 20.996L34.1953 20.9958L34.1952 20.9956L28.1401 20.9958C28.225 23.8119 28.8152 24.9107 31.1048 24.9107C32.8078 24.9107 33.6285 24.5131 33.9796 23.0347L38.8508 23.0349C38.3559 27.038 36.3932 28.0101 30.9649 28.0101C24.4818 28.0101 23.2662 25.89 23.2662 20.3431C23.2662 14.2258 25.049 12.5129 30.9649 12.5129ZM21.5674 13.0839C21.5674 15.3677 18.9711 27.1129 18.4849 27.1129H12.9737C12.4868 27.1129 10.7862 19.2827 10.7862 19.2827C10.7862 19.2827 9.16543 27.1129 8.59815 27.1129H2.92544C2.4392 27.1129 -0.072998 15.4492 -0.072998 13.1654H4.38487L4.38631 13.1769C4.43311 13.5498 5.6062 22.8716 5.92387 22.8716C6.24803 22.8716 8.76023 13.1654 8.76023 13.1654H12.6535L12.6563 13.1769C12.7497 13.5498 15.0877 22.8716 15.4054 22.8716C15.7296 22.8716 17.1883 13.0839 17.1883 13.0839H21.5674ZM48.4692 12.5129C52.4973 12.5129 55.7627 13.1654 55.7627 19.3643C55.7627 25.5632 52.4973 26.2157 48.4692 26.2157C44.4412 26.2157 41.1758 25.4816 41.1758 19.3643C41.1758 13.247 44.4412 12.5129 48.4692 12.5129ZM65.2443 15.926C63.7673 15.926 62.57 16.3856 62.57 20.2154C62.57 24.0452 63.7673 24.5048 65.2443 24.5048C66.7212 24.5048 67.9186 24.0963 67.9186 20.2154C67.9186 16.3345 66.7212 15.926 65.2443 15.926ZM48.4692 15.5308C46.9923 15.5308 45.795 15.9372 45.795 19.3235C45.795 22.7099 46.9923 23.1163 48.4692 23.1163C49.9462 23.1163 51.1435 22.755 51.1435 19.3235C51.1435 15.892 49.9462 15.5308 48.4692 15.5308ZM31.1048 15.2861C29.2873 15.2861 28.4788 15.9579 28.2235 18.1406L34.1028 18.1408C33.8204 15.9012 32.9331 15.2861 31.1048 15.2861ZM55.7222 8.27161C57.3835 8.27161 57.9508 8.92412 57.9508 10.2291C57.9508 11.5342 57.3835 12.1867 55.7222 12.1867C54.0609 12.1867 53.4937 11.5342 53.4937 10.2291C53.4937 8.92412 54.0609 8.27161 55.7222 8.27161Z" fill="#565656"/>
</g>
<defs>
<clipPath id="clip0_3853_29394">
<rect width="98" height="40" fill="white"/>
</clipPath>
</defs>
</svg>
